<?xml version="1.0" encoding="UTF-8" standalone="no"?>
<!-- Created with Inkscape (http://www.inkscape.org/) -->

<svg
   xmlns:dc="http://purl.org/dc/elements/1.1/"
   xmlns:cc="http://creativecommons.org/ns#"
   xmlns:rdf="http://www.w3.org/1999/02/22-rdf-syntax-ns#"
   xmlns:svg="http://www.w3.org/2000/svg"
   xmlns="http://www.w3.org/2000/svg"
   xmlns:sodipodi="http://sodipodi.sourceforge.net/DTD/sodipodi-0.dtd"
   xmlns:inkscape="http://www.inkscape.org/namespaces/inkscape"
   width="156.96114"
   height="146.87865"
   id="svg7675"
   version="1.1"
   inkscape:version="0.48.3.1 r9886"
   sodipodi:docname="logoBabelomics_positive_trans.svg">
  <defs
     id="defs7677" />
  <sodipodi:namedview
     id="base"
     pagecolor="#ffffff"
     bordercolor="#666666"
     borderopacity="1.0"
     inkscape:pageopacity="0.0"
     inkscape:pageshadow="2"
     inkscape:zoom="3.959798"
     inkscape:cx="70.157166"
     inkscape:cy="60.778547"
     inkscape:document-units="px"
     inkscape:current-layer="layer1"
     showgrid="false"
     inkscape:window-width="1680"
     inkscape:window-height="1000"
     inkscape:window-x="0"
     inkscape:window-y="0"
     inkscape:window-maximized="1"
     fit-margin-top="0"
     fit-margin-left="0"
     fit-margin-right="0"
     fit-margin-bottom="0" />
  <metadata
     id="metadata7680">
    <rdf:RDF>
      <cc:Work
         rdf:about="">
        <dc:format>image/svg+xml</dc:format>
        <dc:type
           rdf:resource="http://purl.org/dc/dcmitype/StillImage" />
        <dc:title></dc:title>
      </cc:Work>
    </rdf:RDF>
  </metadata>
  <g
     inkscape:label="Layer 1"
     inkscape:groupmode="layer"
     id="layer1"
     transform="translate(-397.0852,-330.36757)">
    <path
       style="fill:#ffffff;fill-opacity:1;stroke:none"
       d="m 82.65625,47.25 c -14.53544,0.37931 -39.67211,5.05283 -42.53125,9.09375 -1.88708,2.66706 -1.34101,15.3344 0.3125,27.9375 -7.15722,2.06395 -12.38115,4.26369 -13.875,6.375 -2.34406,3.31295 -2.37721,15.99516 -1.09375,30.9375 -4.4768,1.78609 -7.63061,3.61626 -8.875,5.375 -2.49949,3.53261 -5.30632,22.99101 -2.375,29.46875 2.93133,6.47774 130.07282,5.74003 132.65625,-2.59375 2.58343,-8.33378 -8.63752,-40.8296 -13.1875,-44.46875 -1.87532,-1.49991 -6.15448,-2.33303 -11.9375,-2.65625 -2.65169,-14.56236 -6.00481,-26.52942 -9.09375,-29 -1.82937,-1.46317 -6.66599,-2.07199 -13.21875,-2.0625 -1.6946,-12.67321 -4.47677,-25.13812 -7,-27.15625 -1.26689,-1.01328 -4.9361,-1.37643 -9.78125,-1.25 z m -23.6875,13.65625 c 0.547096,-0.01343 0.950696,0.01738 1.09375,0.125 0.572214,0.430458 1.274208,5.334036 0.84375,5.90625 C 60.475792,67.509714 55.572214,68.211708 55,67.78125 54.427786,67.350792 53.725792,62.447214 54.15625,61.875 c 0.322844,-0.429161 3.171211,-0.928466 4.8125,-0.96875 z m 26.75,2.3125 c 1.4306,-0.03511 2.53218,0.06235 2.90625,0.34375 1.025908,0.771757 2.163709,6.933195 2.4375,11.28125 0.225583,0.157304 0.375,0.422885 0.375,0.71875 0,0.24039 -0.09242,0.43622 -0.25,0.59375 -0.0788,0.0788 -0.1771,0.14345 -0.28125,0.1875 -0.0521,0.022 -10.70477,0.83243 -21.3125,2.34375 -10.60773,1.51131 -21.15865,3.71875 -21.21875,3.71875 -0.1202,0 -0.2396,-0.0185 -0.34375,-0.0625 C 47.9271,82.29965 47.82876,82.23502 47.75,82.15625 47.59246,81.99871 47.5,81.80289 47.5,81.5625 c 0,-0.2404 0.09242,-0.46746 0.25,-0.625 0.0788,-0.0788 0.1771,-0.14345 0.28125,-0.1875 0.0521,-0.022 10.61102,-2.26993 21.21875,-3.78125 1.532027,-0.218273 3.060583,-0.405721 4.5625,-0.59375 -0.83887,-4.194656 -1.37727,-9.666537 -0.65625,-10.625 0.84421,-1.12221 8.27069,-2.42591 12.5625,-2.53125 z m -43.6875,36.84375 c 0.547096,-0.0134 0.981946,0.0174 1.125,0.125 0.572214,0.43046 1.242958,5.33404 0.8125,5.90625 -0.430458,0.57221 -5.334036,1.27421 -5.90625,0.84375 -0.572214,-0.43046 -1.242958,-5.33404 -0.8125,-5.90625 0.322844,-0.42916 3.139961,-0.92847 4.78125,-0.96875 z m 22.53125,1.59375 c 1.27695,-0.0313 2.25986,0.0613 2.59375,0.3125 0.802912,0.60401 1.605532,4.8617 1.96875,8.53125 1.128497,-0.18482 2.27199,-0.37062 3.34375,-0.53125 13.86926,-2.0786 35.17195,-3.70076 36.375,-3.75 0.48078,0 0.875,0.39423 0.875,0.875 0,0.24039 -0.0924,0.43622 -0.25,0.59375 -0.0788,0.0788 -0.1771,0.14345 -0.28125,0.1875 -0.60688,-0.0159 -21.97533,1.67713 -35.84375,3.75 -13.86841,2.07288 -33.32394,6.49665 -34.8125,6.6875 -0.1202,0 -0.2396,-0.0185 -0.34375,-0.0625 -0.10415,-0.0441 -0.17124,-0.10873 -0.25,-0.1875 -0.15754,-0.15754 -0.28125,-0.38461 -0.28125,-0.625 0,-0.2404 0.12367,-0.46746 0.28125,-0.625 0.0788,-0.0788 0.14585,-0.14345 0.25,-0.1875 0.49192,-0.13181 7.371723,-1.64968 15.71875,-3.3125 -0.736614,-3.72857 -1.169766,-8.55747 -0.53125,-9.40625 0.75353,-1.00168 7.35665,-2.156 11.1875,-2.25 z M 87,121.78125 c 0.547096,-0.0134 0.950696,0.0174 1.09375,0.125 0.572214,0.43046 1.274208,5.33404 0.84375,5.90625 -0.430458,0.57221 -5.334036,1.27421 -5.90625,0.84375 -0.572214,-0.43046 -1.274208,-5.33404 -0.84375,-5.90625 0.322844,-0.42916 3.171211,-0.92847 4.8125,-0.96875 z m 26.15625,2.90625 c 1.27695,-0.0313 2.22861,0.0301 2.5625,0.28125 1.33558,1.00471 2.97346,12.47692 1.96875,13.8125 -1.00471,1.33558 -12.47692,2.94221 -13.8125,1.9375 -1.33558,-1.00471 -2.94221,-12.44567 -1.9375,-13.78125 0.75353,-1.00168 7.3879,-2.15598 11.21875,-2.25 z m -40.8125,4.65625 c 0.547096,-0.0134 0.950696,0.0174 1.09375,0.125 0.572214,0.43046 1.274208,5.33404 0.84375,5.90625 -0.430458,0.57221 -5.334036,1.27421 -5.90625,0.84375 -0.572214,-0.43046 -1.274208,-5.33404 -0.84375,-5.90625 0.322844,-0.42916 3.171211,-0.92847 4.8125,-0.96875 z"
       transform="translate(384.11877,316.48095)"
       id="path2989-0-11"
       inkscape:connector-curvature="0" />
    <path
       sodipodi:type="arc"
       style="fill:#ffffff;fill-opacity:1;stroke:#ffffff;stroke-width:0.81875002;stroke-linecap:round;stroke-miterlimit:4;stroke-opacity:1;stroke-dasharray:none"
       id="path5723"
       sodipodi:cx="437.25"
       sodipodi:cy="476.61218"
       sodipodi:rx="6.25"
       sodipodi:ry="6.25"
       d="m 443.5,476.61218 c 0,3.45178 -2.79822,6.25 -6.25,6.25 -3.45178,0 -6.25,-2.79822 -6.25,-6.25 0,-3.45178 2.79822,-6.25 6.25,-6.25 3.45178,0 6.25,2.79822 6.25,6.25 z"
       transform="translate(71.135379,-113.72125)" />
    <path
       sodipodi:type="arc"
       style="fill:#ffffff;fill-opacity:1;stroke:#ffffff;stroke-width:0.81875002;stroke-linecap:round;stroke-miterlimit:4;stroke-opacity:1;stroke-dasharray:none"
       id="path5725"
       sodipodi:cx="460"
       sodipodi:cy="466.86218"
       sodipodi:rx="6"
       sodipodi:ry="6"
       d="m 466,466.86218 c 0,3.31371 -2.68629,6 -6,6 -3.31371,0 -6,-2.68629 -6,-6 0,-3.31371 2.68629,-6 6,-6 3.31371,0 6,2.68629 6,6 z"
       transform="translate(70.135379,-117.72125)" />
    <path
       sodipodi:type="arc"
       style="fill:#ffffff;fill-opacity:1;stroke:#ffffff;stroke-width:0.81875002;stroke-linecap:round;stroke-miterlimit:4;stroke-opacity:1;stroke-dasharray:none"
       id="path5727"
       sodipodi:cx="428.75"
       sodipodi:cy="497.61218"
       sodipodi:rx="2.25"
       sodipodi:ry="2.25"
       d="m 431,497.61218 c 0,1.24264 -1.00736,2.25 -2.25,2.25 -1.24264,0 -2.25,-1.00736 -2.25,-2.25 0,-1.24264 1.00736,-2.25 2.25,-2.25 1.24264,0 2.25,1.00736 2.25,2.25 z"
       transform="translate(70.635379,-117.22125)" />
    <path
       sodipodi:type="arc"
       style="fill:#ffffff;fill-opacity:1;stroke:#ffffff;stroke-width:0.81875002;stroke-linecap:round;stroke-miterlimit:4;stroke-opacity:1;stroke-dasharray:none"
       id="path5729"
       sodipodi:cx="463.75"
       sodipodi:cy="489.61218"
       sodipodi:rx="2.25"
       sodipodi:ry="2.25"
       d="m 466,489.61218 c 0,1.24264 -1.00736,2.25 -2.25,2.25 -1.24264,0 -2.25,-1.00736 -2.25,-2.25 0,-1.24264 1.00736,-2.25 2.25,-2.25 1.24264,0 2.25,1.00736 2.25,2.25 z"
       transform="matrix(1.7312032,0,0,1.7312032,-267.23049,-470.164)" />
    <path
       sodipodi:type="arc"
       style="fill:#ffffff;fill-opacity:1;stroke:#ffffff;stroke-width:0.81875002;stroke-linecap:round;stroke-miterlimit:4;stroke-opacity:1;stroke-dasharray:none"
       id="path5731"
       sodipodi:cx="416.5"
       sodipodi:cy="458.36218"
       sodipodi:rx="4"
       sodipodi:ry="4"
       d="m 420.5,458.36218 c 0,2.20914 -1.79086,4 -4,4 -2.20914,0 -4,-1.79086 -4,-4 0,-2.20914 1.79086,-4 4,-4 2.20914,0 4,1.79086 4,4 z"
       transform="translate(75.135379,-114.72125)" />
    <path
       sodipodi:nodetypes="cccc"
       style="fill:none;stroke:#fefeff;stroke-width:1.79999995;stroke-linecap:butt;stroke-linejoin:miter;stroke-miterlimit:4;stroke-opacity:1;stroke-dasharray:none"
       d="m 491.97483,343.67124 16.26345,19.44543 21.56676,-13.78858 5.39168,26.07456"
       id="path5735"
       inkscape:connector-curvature="0" />
    <path
       style="fill:none;stroke:#fefeff;stroke-width:1.79999995;stroke-linecap:butt;stroke-linejoin:miter;stroke-miterlimit:4;stroke-opacity:1;stroke-dasharray:none"
       d="m 507.53118,363.82378 -8.83884,16.61701 0,0"
       id="path5737"
       inkscape:connector-curvature="0" />
    <path
       sodipodi:type="arc"
       style="fill:#ffffff;fill-opacity:1;stroke:#fefeff;stroke-width:0.81875002;stroke-linecap:round;stroke-miterlimit:4;stroke-opacity:1;stroke-dasharray:none"
       id="path5741"
       sodipodi:cx="444.94693"
       sodipodi:cy="511.60226"
       sodipodi:rx="2.2980971"
       sodipodi:ry="2.2980971"
       d="m 447.24503,511.60226 c 0,1.26921 -1.0289,2.2981 -2.2981,2.2981 -1.2692,0 -2.2981,-1.02889 -2.2981,-2.2981 0,-1.2692 1.0289,-2.29809 2.2981,-2.29809 1.2692,0 2.2981,1.02889 2.2981,2.29809 z"
       transform="translate(77.135379,-120.72125)" />
    <path
       transform="translate(46.553021,-148.12163)"
       sodipodi:type="arc"
       style="fill:#ffffff;fill-opacity:1;stroke:#fefeff;stroke-width:0.81875002;stroke-linecap:round;stroke-miterlimit:4;stroke-opacity:1;stroke-dasharray:none"
       id="path5741-6"
       sodipodi:cx="444.94693"
       sodipodi:cy="511.60226"
       sodipodi:rx="2.2980971"
       sodipodi:ry="2.2980971"
       d="m 447.24503,511.60226 c 0,1.26921 -1.0289,2.2981 -2.2981,2.2981 -1.2692,0 -2.2981,-1.02889 -2.2981,-2.2981 0,-1.2692 1.0289,-2.29809 2.2981,-2.29809 1.2692,0 2.2981,1.02889 2.2981,2.29809 z" />
    <path
       transform="translate(64.937798,-167.92062)"
       sodipodi:type="arc"
       style="fill:#ffffff;fill-opacity:1;stroke:#fefeff;stroke-width:0.81875002;stroke-linecap:round;stroke-miterlimit:4;stroke-opacity:1;stroke-dasharray:none"
       id="path5741-0"
       sodipodi:cx="444.94693"
       sodipodi:cy="511.60226"
       sodipodi:rx="2.2980971"
       sodipodi:ry="2.2980971"
       d="m 447.24503,511.60226 c 0,1.26921 -1.0289,2.2981 -2.2981,2.2981 -1.2692,0 -2.2981,-1.02889 -2.2981,-2.2981 0,-1.2692 1.0289,-2.29809 2.2981,-2.29809 1.2692,0 2.2981,1.02889 2.2981,2.29809 z" />
    <path
       transform="translate(87.211661,-178.52722)"
       sodipodi:type="arc"
       style="fill:#ffffff;fill-opacity:1;stroke:#fefeff;stroke-width:0.81875002;stroke-linecap:round;stroke-miterlimit:4;stroke-opacity:1;stroke-dasharray:none"
       id="path5741-66"
       sodipodi:cx="444.94693"
       sodipodi:cy="511.60226"
       sodipodi:rx="2.2980971"
       sodipodi:ry="2.2980971"
       d="m 447.24503,511.60226 c 0,1.26921 -1.0289,2.2981 -2.2981,2.2981 -1.2692,0 -2.2981,-1.02889 -2.2981,-2.2981 0,-1.2692 1.0289,-2.29809 2.2981,-2.29809 1.2692,0 2.2981,1.02889 2.2981,2.29809 z" />
    <path
       transform="translate(102.0609,-161.91021)"
       sodipodi:type="arc"
       style="fill:#ffffff;fill-opacity:1;stroke:#fefeff;stroke-width:0.81875002;stroke-linecap:round;stroke-miterlimit:4;stroke-opacity:1;stroke-dasharray:none"
       id="path5741-9"
       sodipodi:cx="444.94693"
       sodipodi:cy="511.60226"
       sodipodi:rx="2.2980971"
       sodipodi:ry="2.2980971"
       d="m 447.24503,511.60226 c 0,1.26921 -1.0289,2.2981 -2.2981,2.2981 -1.2692,0 -2.2981,-1.02889 -2.2981,-2.2981 0,-1.2692 1.0289,-2.29809 2.2981,-2.29809 1.2692,0 2.2981,1.02889 2.2981,2.29809 z" />
    <path
       transform="translate(77.665719,-135.04016)"
       sodipodi:type="arc"
       style="fill:#ffffff;fill-opacity:1;stroke:#fefeff;stroke-width:0.81875002;stroke-linecap:round;stroke-miterlimit:4;stroke-opacity:1;stroke-dasharray:none"
       id="path5741-8"
       sodipodi:cx="444.94693"
       sodipodi:cy="511.60226"
       sodipodi:rx="2.2980971"
       sodipodi:ry="2.2980971"
       d="m 447.24503,511.60226 c 0,1.26921 -1.0289,2.2981 -2.2981,2.2981 -1.2692,0 -2.2981,-1.02889 -2.2981,-2.2981 0,-1.2692 1.0289,-2.29809 2.2981,-2.29809 1.2692,0 2.2981,1.02889 2.2981,2.29809 z" />
    <path
       transform="translate(106.39193,-120.89802)"
       sodipodi:type="arc"
       style="fill:#ffffff;fill-opacity:1;stroke:#fefeff;stroke-width:0.81875002;stroke-linecap:round;stroke-miterlimit:4;stroke-opacity:1;stroke-dasharray:none"
       id="path5741-63"
       sodipodi:cx="444.94693"
       sodipodi:cy="511.60226"
       sodipodi:rx="2.2980971"
       sodipodi:ry="2.2980971"
       d="m 447.24503,511.60226 c 0,1.26921 -1.0289,2.2981 -2.2981,2.2981 -1.2692,0 -2.2981,-1.02889 -2.2981,-2.2981 0,-1.2692 1.0289,-2.29809 2.2981,-2.29809 1.2692,0 2.2981,1.02889 2.2981,2.29809 z" />
    <path
       transform="translate(92.048972,-119.02518)"
       sodipodi:type="arc"
       style="fill:#ffffff;fill-opacity:1;stroke:#fefeff;stroke-width:0.81875002;stroke-linecap:round;stroke-miterlimit:4;stroke-opacity:1;stroke-dasharray:none"
       id="path5741-08"
       sodipodi:cx="444.94693"
       sodipodi:cy="511.60226"
       sodipodi:rx="2.2980971"
       sodipodi:ry="2.2980971"
       d="m 447.24503,511.60226 c 0,1.26921 -1.0289,2.2981 -2.2981,2.2981 -1.2692,0 -2.2981,-1.02889 -2.2981,-2.2981 0,-1.2692 1.0289,-2.29809 2.2981,-2.29809 1.2692,0 2.2981,1.02889 2.2981,2.29809 z" />
    <path
       style="fill:none;stroke:#ffffff;stroke-width:1.79999995;stroke-linecap:butt;stroke-linejoin:miter;stroke-miterlimit:4;stroke-opacity:1;stroke-dasharray:none"
       d="m 508.11696,364.18774 -16.26345,-0.35355"
       id="path5833"
       inkscape:connector-curvature="0" />
    <path
       style="fill:none;stroke:#ffffff;stroke-width:1.79999995;stroke-linecap:butt;stroke-linejoin:miter;stroke-miterlimit:4;stroke-opacity:1;stroke-dasharray:none"
       d="m 507.76341,361.35932 2.12132,-18.03123"
       id="path5835"
       inkscape:connector-curvature="0" />
    <path
       style="fill:none;stroke:#ffffff;stroke-width:1.79999995;stroke-linecap:butt;stroke-linejoin:miter;stroke-miterlimit:4;stroke-opacity:1;stroke-dasharray:none"
       d="m 530.03727,346.51007 2.12132,-13.08147"
       id="path5837"
       inkscape:connector-curvature="0" />
    <path
       style="fill:none;stroke:#ffffff;stroke-width:1.79999995;stroke-linecap:butt;stroke-linejoin:miter;stroke-miterlimit:4;stroke-opacity:1;stroke-dasharray:none"
       d="m 530.03727,349.3385 17.67767,0.35355"
       id="path5839"
       inkscape:connector-curvature="0" />
    <path
       style="fill:none;stroke:#ffffff;stroke-width:1.79999995;stroke-linecap:butt;stroke-linejoin:miter;stroke-miterlimit:4;stroke-opacity:1;stroke-dasharray:none"
       d="m 522.9662,376.20856 12.19759,1.85615"
       id="path5841"
       inkscape:connector-curvature="0"
       sodipodi:nodetypes="cc" />
    <path
       style="fill:none;stroke:#ffffff;stroke-width:1.79999995;stroke-linecap:butt;stroke-linejoin:miter;stroke-miterlimit:4;stroke-opacity:1;stroke-dasharray:none"
       d="m 521.90554,391.0578 14.14214,-12.9047"
       id="path5843"
       inkscape:connector-curvature="0"
       sodipodi:nodetypes="cc" />
    <path
       style="fill:none;stroke:#ffffff;stroke-width:1.79999995;stroke-linecap:butt;stroke-linejoin:miter;stroke-miterlimit:4;stroke-opacity:1;stroke-dasharray:none"
       d="m 537.14235,392.62886 -1.18306,-15.80158"
       id="path5845"
       inkscape:connector-curvature="0"
       sodipodi:nodetypes="cc" />
    <path
       style="fill:none;stroke:#ffffff;stroke-width:1.79999995;stroke-linecap:butt;stroke-linejoin:miter;stroke-miterlimit:4;stroke-opacity:1;stroke-dasharray:none"
       d="M 551.60403,391.49974 535.69412,377.79955"
       id="path5847"
       inkscape:connector-curvature="0"
       sodipodi:nodetypes="cc" />
  </g>
</svg>
