<?xml version="1.0" encoding="UTF-8" standalone="no"?>
<!-- Created with Inkscape (http://www.inkscape.org/) -->

<svg
   xmlns:dc="http://purl.org/dc/elements/1.1/"
   xmlns:cc="http://creativecommons.org/ns#"
   xmlns:rdf="http://www.w3.org/1999/02/22-rdf-syntax-ns#"
   xmlns:svg="http://www.w3.org/2000/svg"
   xmlns="http://www.w3.org/2000/svg"
   xmlns:sodipodi="http://sodipodi.sourceforge.net/DTD/sodipodi-0.dtd"
   xmlns:inkscape="http://www.inkscape.org/namespaces/inkscape"
   width="180.33389"
   height="180.33389"
   id="svg7413"
   version="1.1"
   inkscape:version="0.48.3.1 r9886"
   sodipodi:docname="logoBabelomics_negative.svg">
  <defs
     id="defs7415" />
  <sodipodi:namedview
     id="base"
     pagecolor="#ffffff"
     bordercolor="#666666"
     borderopacity="1.0"
     inkscape:pageopacity="0.0"
     inkscape:pageshadow="2"
     inkscape:zoom="0.35"
     inkscape:cx="45.166943"
     inkscape:cy="53.024083"
     inkscape:document-units="px"
     inkscape:current-layer="layer1"
     showgrid="false"
     inkscape:window-width="978"
     inkscape:window-height="789"
     inkscape:window-x="327"
     inkscape:window-y="117"
     inkscape:window-maximized="0"
     fit-margin-top="0"
     fit-margin-left="0"
     fit-margin-right="0"
     fit-margin-bottom="0" />
  <metadata
     id="metadata7418">
    <rdf:RDF>
      <cc:Work
         rdf:about="">
        <dc:format>image/svg+xml</dc:format>
        <dc:type
           rdf:resource="http://purl.org/dc/dcmitype/StillImage" />
        <dc:title />
      </cc:Work>
    </rdf:RDF>
  </metadata>
  <g
     inkscape:label="Layer 1"
     inkscape:groupmode="layer"
     id="layer1"
     transform="translate(-329.83306,-405.05238)">
    <g
       transform="translate(97.499999,-381.64286)"
       id="g6735">
      <path
         transform="matrix(0.94746075,0,0,0.94746075,202.86501,732.54851)"
         d="m 210.69088,236.73806 c -14.32686,14.32685 -154.516753,14.32685 -168.843608,0 -14.326855,-14.32686 -14.326855,-154.516753 -10e-7,-168.843608 14.326855,-14.326855 154.516749,-14.326855 168.843609,0 14.32685,14.326854 14.32685,154.516748 0,168.843608 z"
         inkscape:randomized="0"
         inkscape:rounded="0.12"
         inkscape:flatsided="true"
         sodipodi:arg2="1.5707963"
         sodipodi:arg1="0.78539816"
         sodipodi:r2="84.421806"
         sodipodi:r1="119.39046"
         sodipodi:cy="152.31625"
         sodipodi:cx="126.26907"
         sodipodi:sides="4"
         id="path2989-9"
         style="fill:#ffffff;fill-opacity:1;stroke:none"
         sodipodi:type="star" />
      <path
         sodipodi:nodetypes="sscscszzscscss"
         inkscape:connector-curvature="0"
         id="path2989-0-11-4"
         d="m 314.99255,833.94118 c -14.53544,0.37931 -39.68463,5.06214 -42.54377,9.10306 -1.88708,2.66706 -1.32875,15.33388 0.32476,27.93698 -7.15722,2.06395 -12.38234,4.26083 -13.87619,6.37214 -2.34406,3.31295 -2.37584,16.00807 -1.09238,30.95041 -4.4768,1.78609 -7.64227,3.60893 -8.88666,5.36767 -2.49949,3.53261 -5.29322,22.99734 -2.3619,29.47508 2.93133,6.47774 130.06694,5.72842 132.65037,-2.60536 2.58343,-8.33378 -8.64715,-40.84029 -13.19713,-44.47944 -1.87532,-1.49991 -6.14459,-2.31353 -11.92761,-2.63675 -2.65169,-14.56236 -6.00439,-26.53365 -9.09333,-29.00423 -1.82937,-1.46317 -6.67389,-2.08122 -13.22665,-2.07173 -1.6946,-12.67321 -4.47391,-25.13411 -6.99714,-27.15224 -1.26689,-1.01328 -4.92722,-1.38202 -9.77237,-1.25559 z"
         style="fill:#314559;fill-opacity:1;stroke:#314559;stroke-opacity:1" />
      <path
         transform="matrix(0.0123384,0.04604753,-0.04604753,0.0123384,303.4569,834.15602)"
         inkscape:transform-center-y="-0.83825826"
         inkscape:transform-center-x="-0.081130157"
         d="m 324.25896,437.17928 c -11.82857,9.25715 -114.99162,-3.32371 -124.24876,-15.15228 -9.25714,-11.82857 3.32372,-114.99162 15.15229,-124.24877 11.82857,-9.25714 114.99162,3.32372 124.24876,15.15229 9.25714,11.82857 -3.32372,114.99162 -15.15229,124.24876 z"
         inkscape:randomized="0"
         inkscape:rounded="0.12"
         inkscape:flatsided="true"
         sodipodi:arg2="1.6921483"
         sodipodi:arg1="0.90675016"
         sodipodi:r2="44.254021"
         sodipodi:r1="88.508041"
         sodipodi:cy="367.47876"
         sodipodi:cx="269.71072"
         sodipodi:sides="4"
         id="path2987-1-0-2-3"
         style="fill:#ffffff;fill-opacity:1;stroke:#ffffff;stroke-width:3.80757546;stroke-miterlimit:4;stroke-opacity:1;stroke-dasharray:none"
         sodipodi:type="star" />
      <path
         transform="matrix(0.0123384,0.04604753,-0.04604753,0.0123384,286.53685,873.29944)"
         inkscape:transform-center-y="-0.83825826"
         inkscape:transform-center-x="-0.081130157"
         d="m 324.25896,437.17928 c -11.82857,9.25715 -114.99162,-3.32371 -124.24876,-15.15228 -9.25714,-11.82857 3.32372,-114.99162 15.15229,-124.24877 11.82857,-9.25714 114.99162,3.32372 124.24876,15.15229 9.25714,11.82857 -3.32372,114.99162 -15.15229,124.24876 z"
         inkscape:randomized="0"
         inkscape:rounded="0.12"
         inkscape:flatsided="true"
         sodipodi:arg2="1.6921483"
         sodipodi:arg1="0.90675016"
         sodipodi:r2="44.254021"
         sodipodi:r1="88.508041"
         sodipodi:cy="367.47876"
         sodipodi:cx="269.71072"
         sodipodi:sides="4"
         id="path2987-1-0-2-7-5"
         style="fill:#ffffff;fill-opacity:1;stroke:#ffffff;stroke-width:3.80757546;stroke-miterlimit:4;stroke-opacity:1;stroke-dasharray:none"
         sodipodi:type="star" />
      <path
         transform="matrix(0.02879846,0.1074773,-0.1074773,0.02879846,373.86698,879.97688)"
         inkscape:transform-center-y="-1.9565422"
         inkscape:transform-center-x="-0.18936636"
         d="m 324.25896,437.17928 c -11.82857,9.25715 -114.99162,-3.32371 -124.24876,-15.15228 -9.25714,-11.82857 3.32372,-114.99162 15.15229,-124.24877 11.82857,-9.25714 114.99162,3.32372 124.24876,15.15229 9.25714,11.82857 -3.32372,114.99162 -15.15229,124.24876 z"
         inkscape:randomized="0"
         inkscape:rounded="0.12"
         inkscape:flatsided="true"
         sodipodi:arg2="1.6921483"
         sodipodi:arg1="0.90675016"
         sodipodi:r2="44.254021"
         sodipodi:r1="88.508041"
         sodipodi:cy="367.47876"
         sodipodi:cx="269.71072"
         sodipodi:sides="4"
         id="path2987-1-0-2-3-6-3"
         style="fill:#ffffff;fill-opacity:1;stroke:#ffffff;stroke-width:3.80757546;stroke-miterlimit:4;stroke-opacity:1;stroke-dasharray:none"
         sodipodi:type="star" />
      <path
         transform="matrix(0.0123384,0.04604753,-0.04604753,0.0123384,331.48864,895.01772)"
         inkscape:transform-center-y="-0.83825826"
         inkscape:transform-center-x="-0.081130157"
         d="m 324.25896,437.17928 c -11.82857,9.25715 -114.99162,-3.32371 -124.24876,-15.15228 -9.25714,-11.82857 3.32372,-114.99162 15.15229,-124.24877 11.82857,-9.25714 114.99162,3.32372 124.24876,15.15229 9.25714,11.82857 -3.32372,114.99162 -15.15229,124.24876 z"
         inkscape:randomized="0"
         inkscape:rounded="0.12"
         inkscape:flatsided="true"
         sodipodi:arg2="1.6921483"
         sodipodi:arg1="0.90675016"
         sodipodi:r2="44.254021"
         sodipodi:r1="88.508041"
         sodipodi:cy="367.47876"
         sodipodi:cx="269.71072"
         sodipodi:sides="4"
         id="path2987-1-0-2-7-4-7"
         style="fill:#ffffff;fill-opacity:1;stroke:#ffffff;stroke-width:3.80757546;stroke-miterlimit:4;stroke-opacity:1;stroke-dasharray:none"
         sodipodi:type="star" />
      <path
         transform="matrix(0.0123384,0.04604753,-0.04604753,0.0123384,316.84142,902.59387)"
         inkscape:transform-center-y="-0.83825826"
         inkscape:transform-center-x="-0.081130157"
         d="m 324.25896,437.17928 c -11.82857,9.25715 -114.99162,-3.32371 -124.24876,-15.15228 -9.25714,-11.82857 3.32372,-114.99162 15.15229,-124.24877 11.82857,-9.25714 114.99162,3.32372 124.24876,15.15229 9.25714,11.82857 -3.32372,114.99162 -15.15229,124.24876 z"
         inkscape:randomized="0"
         inkscape:rounded="0.12"
         inkscape:flatsided="true"
         sodipodi:arg2="1.6921483"
         sodipodi:arg1="0.90675016"
         sodipodi:r2="44.254021"
         sodipodi:r1="88.508041"
         sodipodi:cy="367.47876"
         sodipodi:cx="269.71072"
         sodipodi:sides="4"
         id="path2987-1-0-2-7-41-2"
         style="fill:#ffffff;fill-opacity:1;stroke:#ffffff;stroke-width:3.80757546;stroke-miterlimit:4;stroke-opacity:1;stroke-dasharray:none"
         sodipodi:type="star" />
      <path
         sodipodi:nodetypes="cc"
         inkscape:connector-curvature="0"
         id="path2987-6-4-6-0"
         d="m 322.97855,862.23471 c -13.31377,0.9411 -29.30083,3.22089 -42.21875,6.03125"
         style="fill:none;stroke:#ffffff;stroke-width:1.80200005;stroke-linecap:round;stroke-miterlimit:4;stroke-opacity:1;stroke-dasharray:none" />
      <path
         sodipodi:nodetypes="cc"
         inkscape:connector-curvature="0"
         id="path2987-1-9-6-8-5"
         d="m 341.54378,893.83665 c -21.68256,1.12684 -50.34167,5.30662 -70.53125,10.34375"
         style="fill:none;stroke:#ffffff;stroke-width:1.80200005;stroke-linecap:round;stroke-miterlimit:4;stroke-opacity:1;stroke-dasharray:none" />
      <path
         inkscape:connector-curvature="0"
         id="path2987-1-0-2-3-4-6"
         d="m 296.88152,888.35579 c -3.83085,0.094 -10.43397,1.24832 -11.1875,2.25 -0.69066,0.9181 -0.12582,6.5139 0.71875,10.3125 0.50748,-0.0989 0.92547,-0.21491 1.4375,-0.3125 4.4165,-0.84178 9.07867,-1.58506 13.71875,-2.3125 -0.2912,-3.85354 -1.21122,-8.9611 -2.09375,-9.625 -0.33389,-0.25118 -1.3168,-0.34384 -2.59375,-0.3125 z"
         style="fill:#ffffff;fill-opacity:1;stroke:#ffffff;stroke-width:0.42366394;stroke-miterlimit:4;stroke-opacity:1;stroke-dasharray:none" />
      <path
         inkscape:connector-curvature="0"
         id="path2987-1-0-7-7"
         d="m 318.10027,849.79329 c -4.29181,0.10534 -11.71829,1.40904 -12.5625,2.53125 -0.74752,0.99369 -0.14125,6.8513 0.75,11.09375 5.87006,-0.76848 11.76734,-1.48794 17.15625,-1.875 -0.26043,-4.35361 -1.40223,-10.62745 -2.4375,-11.40625 -0.37407,-0.2814 -1.47565,-0.37886 -2.90625,-0.34375 z"
         style="fill:#ffffff;fill-opacity:1;stroke:#ffffff;stroke-width:0.47464281;stroke-miterlimit:4;stroke-opacity:1;stroke-dasharray:none" />
      <path
         transform="translate(-80.650337,356.49304)"
         d="m 443.5,476.61218 c 0,3.45178 -2.79822,6.25 -6.25,6.25 -3.45178,0 -6.25,-2.79822 -6.25,-6.25 0,-3.45178 2.79822,-6.25 6.25,-6.25 3.45178,0 6.25,2.79822 6.25,6.25 z"
         sodipodi:ry="6.25"
         sodipodi:rx="6.25"
         sodipodi:cy="476.61218"
         sodipodi:cx="437.25"
         id="path5723-3"
         style="fill:#314559;fill-opacity:1;stroke:#314559;stroke-width:0.81875002;stroke-linecap:round;stroke-miterlimit:4;stroke-opacity:1;stroke-dasharray:none"
         sodipodi:type="arc" />
      <path
         transform="translate(-81.650337,352.49304)"
         d="m 466,466.86218 c 0,3.31371 -2.68629,6 -6,6 -3.31371,0 -6,-2.68629 -6,-6 0,-3.31371 2.68629,-6 6,-6 3.31371,0 6,2.68629 6,6 z"
         sodipodi:ry="6"
         sodipodi:rx="6"
         sodipodi:cy="466.86218"
         sodipodi:cx="460"
         id="path5725-6"
         style="fill:#314559;fill-opacity:1;stroke:#314559;stroke-width:0.81875002;stroke-linecap:round;stroke-miterlimit:4;stroke-opacity:1;stroke-dasharray:none"
         sodipodi:type="arc" />
      <path
         transform="translate(-81.150337,352.99304)"
         d="m 431,497.61218 c 0,1.24264 -1.00736,2.25 -2.25,2.25 -1.24264,0 -2.25,-1.00736 -2.25,-2.25 0,-1.24264 1.00736,-2.25 2.25,-2.25 1.24264,0 2.25,1.00736 2.25,2.25 z"
         sodipodi:ry="2.25"
         sodipodi:rx="2.25"
         sodipodi:cy="497.61218"
         sodipodi:cx="428.75"
         id="path5727-7"
         style="fill:#314559;fill-opacity:1;stroke:#314559;stroke-width:0.81875002;stroke-linecap:round;stroke-miterlimit:4;stroke-opacity:1;stroke-dasharray:none"
         sodipodi:type="arc" />
      <path
         transform="matrix(1.7312032,0,0,1.7312032,-419.0162,0.05029)"
         d="m 466,489.61218 c 0,1.24264 -1.00736,2.25 -2.25,2.25 -1.24264,0 -2.25,-1.00736 -2.25,-2.25 0,-1.24264 1.00736,-2.25 2.25,-2.25 1.24264,0 2.25,1.00736 2.25,2.25 z"
         sodipodi:ry="2.25"
         sodipodi:rx="2.25"
         sodipodi:cy="489.61218"
         sodipodi:cx="463.75"
         id="path5729-2"
         style="fill:#314559;fill-opacity:1;stroke:#314559;stroke-width:0.81875002;stroke-linecap:round;stroke-miterlimit:4;stroke-opacity:1;stroke-dasharray:none"
         sodipodi:type="arc" />
      <path
         transform="translate(-76.650337,355.49304)"
         d="m 420.5,458.36218 c 0,2.20914 -1.79086,4 -4,4 -2.20914,0 -4,-1.79086 -4,-4 0,-2.20914 1.79086,-4 4,-4 2.20914,0 4,1.79086 4,4 z"
         sodipodi:ry="4"
         sodipodi:rx="4"
         sodipodi:cy="458.36218"
         sodipodi:cx="416.5"
         id="path5731-8"
         style="fill:#314559;fill-opacity:1;stroke:#314559;stroke-width:0.81875002;stroke-linecap:round;stroke-miterlimit:4;stroke-opacity:1;stroke-dasharray:none"
         sodipodi:type="arc" />
      <path
         inkscape:connector-curvature="0"
         id="path5735-5"
         d="m 340.18912,813.88553 16.26345,19.44543 21.56676,-13.78858 5.39168,26.07456"
         style="fill:none;stroke:#314559;stroke-width:1.79999995;stroke-linecap:round;stroke-linejoin:miter;stroke-miterlimit:4;stroke-opacity:1;stroke-dasharray:none"
         sodipodi:nodetypes="cccc" />
      <path
         inkscape:connector-curvature="0"
         id="path5737-2"
         d="m 355.74547,834.03807 -8.83884,16.61701 0,0"
         style="fill:#314559;fill-opacity:1;stroke:#314559;stroke-width:1.79999995;stroke-linecap:round;stroke-linejoin:miter;stroke-miterlimit:4;stroke-opacity:1;stroke-dasharray:none" />
      <path
         transform="translate(-74.650337,349.49304)"
         d="m 447.24503,511.60226 c 0,1.26921 -1.0289,2.2981 -2.2981,2.2981 -1.2692,0 -2.2981,-1.02889 -2.2981,-2.2981 0,-1.2692 1.0289,-2.29809 2.2981,-2.29809 1.2692,0 2.2981,1.02889 2.2981,2.29809 z"
         sodipodi:ry="2.2980971"
         sodipodi:rx="2.2980971"
         sodipodi:cy="511.60226"
         sodipodi:cx="444.94693"
         id="path5741-4"
         style="fill:#314559;fill-opacity:1;stroke:#314559;stroke-width:0.81875002;stroke-linecap:round;stroke-miterlimit:4;stroke-opacity:1;stroke-dasharray:none"
         sodipodi:type="arc" />
      <path
         d="m 447.24503,511.60226 c 0,1.26921 -1.0289,2.2981 -2.2981,2.2981 -1.2692,0 -2.2981,-1.02889 -2.2981,-2.2981 0,-1.2692 1.0289,-2.29809 2.2981,-2.29809 1.2692,0 2.2981,1.02889 2.2981,2.29809 z"
         sodipodi:ry="2.2980971"
         sodipodi:rx="2.2980971"
         sodipodi:cy="511.60226"
         sodipodi:cx="444.94693"
         id="path5741-6-2"
         style="fill:#314559;fill-opacity:1;stroke:#314559;stroke-width:0.81875002;stroke-linecap:round;stroke-miterlimit:4;stroke-opacity:1;stroke-dasharray:none"
         sodipodi:type="arc"
         transform="translate(-105.2327,322.09266)" />
      <path
         d="m 447.24503,511.60226 c 0,1.26921 -1.0289,2.2981 -2.2981,2.2981 -1.2692,0 -2.2981,-1.02889 -2.2981,-2.2981 0,-1.2692 1.0289,-2.29809 2.2981,-2.29809 1.2692,0 2.2981,1.02889 2.2981,2.29809 z"
         sodipodi:ry="2.2980971"
         sodipodi:rx="2.2980971"
         sodipodi:cy="511.60226"
         sodipodi:cx="444.94693"
         id="path5741-0-8"
         style="fill:#314559;fill-opacity:1;stroke:#314559;stroke-width:0.81875002;stroke-linecap:round;stroke-miterlimit:4;stroke-opacity:1;stroke-dasharray:none"
         sodipodi:type="arc"
         transform="translate(-86.847918,302.29367)" />
      <path
         d="m 447.24503,511.60226 c 0,1.26921 -1.0289,2.2981 -2.2981,2.2981 -1.2692,0 -2.2981,-1.02889 -2.2981,-2.2981 0,-1.2692 1.0289,-2.29809 2.2981,-2.29809 1.2692,0 2.2981,1.02889 2.2981,2.29809 z"
         sodipodi:ry="2.2980971"
         sodipodi:rx="2.2980971"
         sodipodi:cy="511.60226"
         sodipodi:cx="444.94693"
         id="path5741-66-7"
         style="fill:#314559;fill-opacity:1;stroke:#314559;stroke-width:0.81875002;stroke-linecap:round;stroke-miterlimit:4;stroke-opacity:1;stroke-dasharray:none"
         sodipodi:type="arc"
         transform="translate(-64.574055,291.68707)" />
      <path
         d="m 447.24503,511.60226 c 0,1.26921 -1.0289,2.2981 -2.2981,2.2981 -1.2692,0 -2.2981,-1.02889 -2.2981,-2.2981 0,-1.2692 1.0289,-2.29809 2.2981,-2.29809 1.2692,0 2.2981,1.02889 2.2981,2.29809 z"
         sodipodi:ry="2.2980971"
         sodipodi:rx="2.2980971"
         sodipodi:cy="511.60226"
         sodipodi:cx="444.94693"
         id="path5741-9-3"
         style="fill:#314559;fill-opacity:1;stroke:#314559;stroke-width:0.81875002;stroke-linecap:round;stroke-miterlimit:4;stroke-opacity:1;stroke-dasharray:none"
         sodipodi:type="arc"
         transform="translate(-49.724812,308.30408)" />
      <path
         d="m 447.24503,511.60226 c 0,1.26921 -1.0289,2.2981 -2.2981,2.2981 -1.2692,0 -2.2981,-1.02889 -2.2981,-2.2981 0,-1.2692 1.0289,-2.29809 2.2981,-2.29809 1.2692,0 2.2981,1.02889 2.2981,2.29809 z"
         sodipodi:ry="2.2980971"
         sodipodi:rx="2.2980971"
         sodipodi:cy="511.60226"
         sodipodi:cx="444.94693"
         id="path5741-8-1"
         style="fill:#314559;fill-opacity:1;stroke:#314559;stroke-width:0.81875002;stroke-linecap:round;stroke-miterlimit:4;stroke-opacity:1;stroke-dasharray:none"
         sodipodi:type="arc"
         transform="translate(-74.119996,335.17413)" />
      <path
         d="m 447.24503,511.60226 c 0,1.26921 -1.0289,2.2981 -2.2981,2.2981 -1.2692,0 -2.2981,-1.02889 -2.2981,-2.2981 0,-1.2692 1.0289,-2.29809 2.2981,-2.29809 1.2692,0 2.2981,1.02889 2.2981,2.29809 z"
         sodipodi:ry="2.2980971"
         sodipodi:rx="2.2980971"
         sodipodi:cy="511.60226"
         sodipodi:cx="444.94693"
         id="path5741-63-9"
         style="fill:#314559;fill-opacity:1;stroke:#314559;stroke-width:0.81875002;stroke-linecap:round;stroke-miterlimit:4;stroke-opacity:1;stroke-dasharray:none"
         sodipodi:type="arc"
         transform="translate(-45.393784,349.31627)" />
      <path
         d="m 447.24503,511.60226 c 0,1.26921 -1.0289,2.2981 -2.2981,2.2981 -1.2692,0 -2.2981,-1.02889 -2.2981,-2.2981 0,-1.2692 1.0289,-2.29809 2.2981,-2.29809 1.2692,0 2.2981,1.02889 2.2981,2.29809 z"
         sodipodi:ry="2.2980971"
         sodipodi:rx="2.2980971"
         sodipodi:cy="511.60226"
         sodipodi:cx="444.94693"
         id="path5741-08-1"
         style="fill:#314559;fill-opacity:1;stroke:#314559;stroke-width:0.81875002;stroke-linecap:round;stroke-miterlimit:4;stroke-opacity:1;stroke-dasharray:none"
         sodipodi:type="arc"
         transform="translate(-59.736744,351.18911)" />
      <path
         inkscape:connector-curvature="0"
         id="path5833-6"
         d="M 356.33125,834.40203 340.0678,834.04848"
         style="fill:#314559;fill-opacity:1;stroke:#314559;stroke-width:1.79999995;stroke-linecap:round;stroke-linejoin:miter;stroke-miterlimit:4;stroke-opacity:1;stroke-dasharray:none" />
      <path
         inkscape:connector-curvature="0"
         id="path5835-2"
         d="m 355.9777,831.57361 2.12132,-18.03123"
         style="fill:#314559;fill-opacity:1;stroke:#314559;stroke-width:1.79999995;stroke-linecap:round;stroke-linejoin:miter;stroke-miterlimit:4;stroke-opacity:1;stroke-dasharray:none" />
      <path
         inkscape:connector-curvature="0"
         id="path5837-6"
         d="m 378.25156,816.72436 2.12132,-13.08147"
         style="fill:#314559;fill-opacity:1;stroke:#314559;stroke-width:1.79999995;stroke-linecap:round;stroke-linejoin:miter;stroke-miterlimit:4;stroke-opacity:1;stroke-dasharray:none" />
      <path
         inkscape:connector-curvature="0"
         id="path5839-8"
         d="m 378.25156,819.55279 17.67767,0.35355"
         style="fill:#314559;fill-opacity:1;stroke:#314559;stroke-width:1.79999995;stroke-linecap:round;stroke-linejoin:miter;stroke-miterlimit:4;stroke-opacity:1;stroke-dasharray:none" />
      <path
         sodipodi:nodetypes="cc"
         inkscape:connector-curvature="0"
         id="path5841-9"
         d="m 371.18049,846.42285 12.19759,1.85615"
         style="fill:#314559;fill-opacity:1;stroke:#314559;stroke-width:1.79999995;stroke-linecap:round;stroke-linejoin:miter;stroke-miterlimit:4;stroke-opacity:1;stroke-dasharray:none" />
      <path
         sodipodi:nodetypes="cc"
         inkscape:connector-curvature="0"
         id="path5843-3"
         d="m 370.11983,861.27209 14.14214,-12.9047"
         style="fill:#314559;fill-opacity:1;stroke:#314559;stroke-width:1.79999995;stroke-linecap:round;stroke-linejoin:miter;stroke-miterlimit:4;stroke-opacity:1;stroke-dasharray:none" />
      <path
         sodipodi:nodetypes="cc"
         inkscape:connector-curvature="0"
         id="path5845-1"
         d="m 385.35664,862.84315 -1.18306,-15.80158"
         style="fill:#314559;fill-opacity:1;stroke:#314559;stroke-width:1.79999995;stroke-linecap:round;stroke-linejoin:miter;stroke-miterlimit:4;stroke-opacity:1;stroke-dasharray:none" />
      <path
         sodipodi:nodetypes="cc"
         inkscape:connector-curvature="0"
         id="path5847-4"
         d="M 399.81832,861.71403 383.90841,848.01384"
         style="fill:#314559;fill-opacity:1;stroke:#314559;stroke-width:1.79999995;stroke-linecap:round;stroke-linejoin:miter;stroke-miterlimit:4;stroke-opacity:1;stroke-dasharray:none" />
    </g>
  </g>
</svg>
