<?xml version="1.0" encoding="UTF-8" standalone="no"?>
<!-- Created with Inkscape (http://www.inkscape.org/) -->

<svg
   xmlns:dc="http://purl.org/dc/elements/1.1/"
   xmlns:cc="http://creativecommons.org/ns#"
   xmlns:rdf="http://www.w3.org/1999/02/22-rdf-syntax-ns#"
   xmlns:svg="http://www.w3.org/2000/svg"
   xmlns="http://www.w3.org/2000/svg"
   xmlns:sodipodi="http://sodipodi.sourceforge.net/DTD/sodipodi-0.dtd"
   xmlns:inkscape="http://www.inkscape.org/namespaces/inkscape"
   width="180.33389"
   height="180.33389"
   id="svg7675"
   version="1.1"
   inkscape:version="0.48.3.1 r9886"
   sodipodi:docname="logoBabelomics_positive.svg">
  <defs
     id="defs7677" />
  <sodipodi:namedview
     id="base"
     pagecolor="#ffffff"
     bordercolor="#666666"
     borderopacity="1.0"
     inkscape:pageopacity="0.0"
     inkscape:pageshadow="2"
     inkscape:zoom="0.7"
     inkscape:cx="272.03429"
     inkscape:cy="22.805362"
     inkscape:document-units="px"
     inkscape:current-layer="layer1"
     showgrid="false"
     inkscape:window-width="1680"
     inkscape:window-height="1025"
     inkscape:window-x="1680"
     inkscape:window-y="0"
     inkscape:window-maximized="1"
     fit-margin-top="0"
     fit-margin-left="0"
     fit-margin-right="0"
     fit-margin-bottom="0" />
  <metadata
     id="metadata7680">
    <rdf:RDF>
      <cc:Work
         rdf:about="">
        <dc:format>image/svg+xml</dc:format>
        <dc:type
           rdf:resource="http://purl.org/dc/dcmitype/StillImage" />
        <dc:title />
      </cc:Work>
    </rdf:RDF>
  </metadata>
  <g
     inkscape:label="Layer 1"
     inkscape:groupmode="layer"
     id="layer1"
     transform="translate(-384.11877,-316.48095)">
    <path
       sodipodi:type="star"
       style="fill:#314559;fill-opacity:1;stroke:none"
       id="path2989"
       sodipodi:sides="4"
       sodipodi:cx="126.26907"
       sodipodi:cy="152.31625"
       sodipodi:r1="119.39046"
       sodipodi:r2="84.421806"
       sodipodi:arg1="0.78539816"
       sodipodi:arg2="1.5707963"
       inkscape:flatsided="true"
       inkscape:rounded="0.12"
       inkscape:randomized="0"
       d="m 210.69088,236.73806 c -14.32686,14.32685 -154.516753,14.32685 -168.843608,0 -14.326855,-14.32686 -14.326855,-154.516753 -10e-7,-168.843608 14.326855,-14.326855 154.516749,-14.326855 168.843609,0 14.32685,14.326854 14.32685,154.516748 0,168.843608 z"
       transform="matrix(0.94746075,0,0,0.94746075,354.65072,262.33422)" />
    <path
       style="fill:#ffffff;fill-opacity:1;stroke:none"
       d="m 466.77826,363.72689 c -14.53544,0.37931 -39.68463,5.06214 -42.54377,9.10306 -1.88708,2.66706 -1.32875,15.33388 0.32476,27.93698 -7.15722,2.06395 -12.38234,4.26083 -13.87619,6.37214 -2.34406,3.31295 -2.37584,16.00807 -1.09238,30.95041 -4.4768,1.78609 -7.64227,3.60893 -8.88666,5.36767 -2.49949,3.53261 -5.29322,22.99734 -2.3619,29.47508 2.93133,6.47774 130.06694,5.72842 132.65037,-2.60536 2.58343,-8.33378 -8.64715,-40.84029 -13.19713,-44.47944 -1.87532,-1.49991 -6.14459,-2.31353 -11.92761,-2.63675 -2.65169,-14.56236 -6.00439,-26.53365 -9.09333,-29.00423 -1.82937,-1.46317 -6.67389,-2.08122 -13.22665,-2.07173 -1.6946,-12.67321 -4.47391,-25.13411 -6.99714,-27.15224 -1.26689,-1.01328 -4.92722,-1.38202 -9.77237,-1.25559 z"
       id="path2989-0-11"
       inkscape:connector-curvature="0"
       sodipodi:nodetypes="sscscszzscscss" />
    <path
       sodipodi:type="star"
       style="fill:#314559;fill-opacity:1;stroke:#314559;stroke-width:3.80757546;stroke-miterlimit:4;stroke-opacity:1;stroke-dasharray:none"
       id="path2987-1-0-2"
       sodipodi:sides="4"
       sodipodi:cx="269.71072"
       sodipodi:cy="367.47876"
       sodipodi:r1="88.508041"
       sodipodi:r2="44.254021"
       sodipodi:arg1="0.90675016"
       sodipodi:arg2="1.6921483"
       inkscape:flatsided="true"
       inkscape:rounded="0.12"
       inkscape:randomized="0"
       d="m 324.25896,437.17928 c -11.82857,9.25715 -114.99162,-3.32371 -124.24876,-15.15228 -9.25714,-11.82857 3.32372,-114.99162 15.15229,-124.24877 11.82857,-9.25714 114.99162,3.32372 124.24876,15.15229 9.25714,11.82857 -3.32372,114.99162 -15.15229,124.24876 z"
       inkscape:transform-center-x="-0.081130157"
       inkscape:transform-center-y="-0.83825826"
       transform="matrix(0.0123384,0.04604753,-0.04604753,0.0123384,455.24261,363.94173)" />
    <path
       sodipodi:type="star"
       style="fill:#314559;fill-opacity:1;stroke:#314559;stroke-width:3.80757546;stroke-miterlimit:4;stroke-opacity:1;stroke-dasharray:none"
       id="path2987-1-0-2-7"
       sodipodi:sides="4"
       sodipodi:cx="269.71072"
       sodipodi:cy="367.47876"
       sodipodi:r1="88.508041"
       sodipodi:r2="44.254021"
       sodipodi:arg1="0.90675016"
       sodipodi:arg2="1.6921483"
       inkscape:flatsided="true"
       inkscape:rounded="0.12"
       inkscape:randomized="0"
       d="m 324.25896,437.17928 c -11.82857,9.25715 -114.99162,-3.32371 -124.24876,-15.15228 -9.25714,-11.82857 3.32372,-114.99162 15.15229,-124.24877 11.82857,-9.25714 114.99162,3.32372 124.24876,15.15229 9.25714,11.82857 -3.32372,114.99162 -15.15229,124.24876 z"
       inkscape:transform-center-x="-0.081130157"
       inkscape:transform-center-y="-0.83825826"
       transform="matrix(0.0123384,0.04604753,-0.04604753,0.0123384,438.32256,403.08515)" />
    <path
       sodipodi:type="star"
       style="fill:#314559;fill-opacity:1;stroke:#314559;stroke-width:3.80757546;stroke-miterlimit:4;stroke-opacity:1;stroke-dasharray:none"
       id="path2987-1-0-2-3-6"
       sodipodi:sides="4"
       sodipodi:cx="269.71072"
       sodipodi:cy="367.47876"
       sodipodi:r1="88.508041"
       sodipodi:r2="44.254021"
       sodipodi:arg1="0.90675016"
       sodipodi:arg2="1.6921483"
       inkscape:flatsided="true"
       inkscape:rounded="0.12"
       inkscape:randomized="0"
       d="m 324.25896,437.17928 c -11.82857,9.25715 -114.99162,-3.32371 -124.24876,-15.15228 -9.25714,-11.82857 3.32372,-114.99162 15.15229,-124.24877 11.82857,-9.25714 114.99162,3.32372 124.24876,15.15229 9.25714,11.82857 -3.32372,114.99162 -15.15229,124.24876 z"
       inkscape:transform-center-x="-0.18936636"
       inkscape:transform-center-y="-1.9565422"
       transform="matrix(0.02879846,0.1074773,-0.1074773,0.02879846,525.65269,409.76259)" />
    <path
       sodipodi:type="star"
       style="fill:#314559;fill-opacity:1;stroke:#314559;stroke-width:3.80757546;stroke-miterlimit:4;stroke-opacity:1;stroke-dasharray:none"
       id="path2987-1-0-2-7-4"
       sodipodi:sides="4"
       sodipodi:cx="269.71072"
       sodipodi:cy="367.47876"
       sodipodi:r1="88.508041"
       sodipodi:r2="44.254021"
       sodipodi:arg1="0.90675016"
       sodipodi:arg2="1.6921483"
       inkscape:flatsided="true"
       inkscape:rounded="0.12"
       inkscape:randomized="0"
       d="m 324.25896,437.17928 c -11.82857,9.25715 -114.99162,-3.32371 -124.24876,-15.15228 -9.25714,-11.82857 3.32372,-114.99162 15.15229,-124.24877 11.82857,-9.25714 114.99162,3.32372 124.24876,15.15229 9.25714,11.82857 -3.32372,114.99162 -15.15229,124.24876 z"
       inkscape:transform-center-x="-0.081130157"
       inkscape:transform-center-y="-0.83825826"
       transform="matrix(0.0123384,0.04604753,-0.04604753,0.0123384,483.27435,424.80343)" />
    <path
       sodipodi:type="star"
       style="fill:#314559;fill-opacity:1;stroke:#314559;stroke-width:3.80757546;stroke-miterlimit:4;stroke-opacity:1;stroke-dasharray:none"
       id="path2987-1-0-2-7-41"
       sodipodi:sides="4"
       sodipodi:cx="269.71072"
       sodipodi:cy="367.47876"
       sodipodi:r1="88.508041"
       sodipodi:r2="44.254021"
       sodipodi:arg1="0.90675016"
       sodipodi:arg2="1.6921483"
       inkscape:flatsided="true"
       inkscape:rounded="0.12"
       inkscape:randomized="0"
       d="m 324.25896,437.17928 c -11.82857,9.25715 -114.99162,-3.32371 -124.24876,-15.15228 -9.25714,-11.82857 3.32372,-114.99162 15.15229,-124.24877 11.82857,-9.25714 114.99162,3.32372 124.24876,15.15229 9.25714,11.82857 -3.32372,114.99162 -15.15229,124.24876 z"
       inkscape:transform-center-x="-0.081130157"
       inkscape:transform-center-y="-0.83825826"
       transform="matrix(0.0123384,0.04604753,-0.04604753,0.0123384,468.62713,432.37958)" />
    <path
       style="fill:#ffffff;fill-opacity:1;stroke:#314559;stroke-width:1.80200005;stroke-linecap:round;stroke-miterlimit:4;stroke-opacity:1;stroke-dasharray:none"
       d="m 474.76426,392.02042 c -13.31377,0.9411 -29.30083,3.22089 -42.21875,6.03125"
       id="path2987-6-4-6"
       inkscape:connector-curvature="0"
       sodipodi:nodetypes="cc" />
    <path
       style="fill:none;stroke:#314559;stroke-width:1.80200005;stroke-linecap:round;stroke-miterlimit:4;stroke-opacity:1;stroke-dasharray:none"
       d="m 493.32949,423.62236 c -21.68256,1.12684 -50.34167,5.30662 -70.53125,10.34375"
       id="path2987-1-9-6-8"
       inkscape:connector-curvature="0"
       sodipodi:nodetypes="cc" />
    <path
       style="fill:#314559;fill-opacity:1;stroke:#314559;stroke-width:0.42366394;stroke-miterlimit:4;stroke-opacity:1;stroke-dasharray:none"
       d="m 448.66723,418.1415 c -3.83085,0.094 -10.43397,1.24832 -11.1875,2.25 -0.69066,0.9181 -0.12582,6.5139 0.71875,10.3125 0.50748,-0.0989 0.92547,-0.21491 1.4375,-0.3125 4.4165,-0.84178 9.07867,-1.58506 13.71875,-2.3125 -0.2912,-3.85354 -1.21122,-8.9611 -2.09375,-9.625 -0.33389,-0.25118 -1.3168,-0.34384 -2.59375,-0.3125 z"
       id="path2987-1-0-2-3-4"
       inkscape:connector-curvature="0" />
    <path
       style="fill:#314559;fill-opacity:1;stroke:#314559;stroke-width:0.47464281;stroke-miterlimit:4;stroke-opacity:1;stroke-dasharray:none"
       d="m 469.84309,379.704 c -4.29181,0.10534 -11.71829,1.40904 -12.5625,2.53125 -0.74752,0.99369 -0.14125,6.8513 0.75,11.09375 5.87006,-0.76848 11.76734,-1.48794 17.15625,-1.875 -0.26043,-4.35361 -1.40223,-10.62745 -2.4375,-11.40625 -0.37407,-0.2814 -1.47565,-0.37886 -2.90625,-0.34375 z"
       id="path2987-1-0-7"
       inkscape:connector-curvature="0" />
    <path
       sodipodi:type="arc"
       style="fill:#ffffff;fill-opacity:1;stroke:#ffffff;stroke-width:0.81875002;stroke-linecap:round;stroke-miterlimit:4;stroke-opacity:1;stroke-dasharray:none"
       id="path5723"
       sodipodi:cx="437.25"
       sodipodi:cy="476.61218"
       sodipodi:rx="6.25"
       sodipodi:ry="6.25"
       d="m 443.5,476.61218 c 0,3.45178 -2.79822,6.25 -6.25,6.25 -3.45178,0 -6.25,-2.79822 -6.25,-6.25 0,-3.45178 2.79822,-6.25 6.25,-6.25 3.45178,0 6.25,2.79822 6.25,6.25 z"
       transform="translate(71.135379,-113.72125)" />
    <path
       sodipodi:type="arc"
       style="fill:#ffffff;fill-opacity:1;stroke:#ffffff;stroke-width:0.81875002;stroke-linecap:round;stroke-miterlimit:4;stroke-opacity:1;stroke-dasharray:none"
       id="path5725"
       sodipodi:cx="460"
       sodipodi:cy="466.86218"
       sodipodi:rx="6"
       sodipodi:ry="6"
       d="m 466,466.86218 c 0,3.31371 -2.68629,6 -6,6 -3.31371,0 -6,-2.68629 -6,-6 0,-3.31371 2.68629,-6 6,-6 3.31371,0 6,2.68629 6,6 z"
       transform="translate(70.135379,-117.72125)" />
    <path
       sodipodi:type="arc"
       style="fill:#ffffff;fill-opacity:1;stroke:#ffffff;stroke-width:0.81875002;stroke-linecap:round;stroke-miterlimit:4;stroke-opacity:1;stroke-dasharray:none"
       id="path5727"
       sodipodi:cx="428.75"
       sodipodi:cy="497.61218"
       sodipodi:rx="2.25"
       sodipodi:ry="2.25"
       d="m 431,497.61218 c 0,1.24264 -1.00736,2.25 -2.25,2.25 -1.24264,0 -2.25,-1.00736 -2.25,-2.25 0,-1.24264 1.00736,-2.25 2.25,-2.25 1.24264,0 2.25,1.00736 2.25,2.25 z"
       transform="translate(70.635379,-117.22125)" />
    <path
       sodipodi:type="arc"
       style="fill:#ffffff;fill-opacity:1;stroke:#ffffff;stroke-width:0.81875002;stroke-linecap:round;stroke-miterlimit:4;stroke-opacity:1;stroke-dasharray:none"
       id="path5729"
       sodipodi:cx="463.75"
       sodipodi:cy="489.61218"
       sodipodi:rx="2.25"
       sodipodi:ry="2.25"
       d="m 466,489.61218 c 0,1.24264 -1.00736,2.25 -2.25,2.25 -1.24264,0 -2.25,-1.00736 -2.25,-2.25 0,-1.24264 1.00736,-2.25 2.25,-2.25 1.24264,0 2.25,1.00736 2.25,2.25 z"
       transform="matrix(1.7312032,0,0,1.7312032,-267.23049,-470.164)" />
    <path
       sodipodi:type="arc"
       style="fill:#ffffff;fill-opacity:1;stroke:#ffffff;stroke-width:0.81875002;stroke-linecap:round;stroke-miterlimit:4;stroke-opacity:1;stroke-dasharray:none"
       id="path5731"
       sodipodi:cx="416.5"
       sodipodi:cy="458.36218"
       sodipodi:rx="4"
       sodipodi:ry="4"
       d="m 420.5,458.36218 c 0,2.20914 -1.79086,4 -4,4 -2.20914,0 -4,-1.79086 -4,-4 0,-2.20914 1.79086,-4 4,-4 2.20914,0 4,1.79086 4,4 z"
       transform="translate(75.135379,-114.72125)" />
    <path
       sodipodi:nodetypes="cccc"
       style="fill:none;stroke:#fefeff;stroke-width:1.79999995;stroke-linecap:butt;stroke-linejoin:miter;stroke-miterlimit:4;stroke-opacity:1;stroke-dasharray:none"
       d="m 491.97483,343.67124 16.26345,19.44543 21.56676,-13.78858 5.39168,26.07456"
       id="path5735"
       inkscape:connector-curvature="0" />
    <path
       style="fill:none;stroke:#fefeff;stroke-width:1.79999995;stroke-linecap:butt;stroke-linejoin:miter;stroke-miterlimit:4;stroke-opacity:1;stroke-dasharray:none"
       d="m 507.53118,363.82378 -8.83884,16.61701 0,0"
       id="path5737"
       inkscape:connector-curvature="0" />
    <path
       sodipodi:type="arc"
       style="fill:#ffffff;fill-opacity:1;stroke:#fefeff;stroke-width:0.81875002;stroke-linecap:round;stroke-miterlimit:4;stroke-opacity:1;stroke-dasharray:none"
       id="path5741"
       sodipodi:cx="444.94693"
       sodipodi:cy="511.60226"
       sodipodi:rx="2.2980971"
       sodipodi:ry="2.2980971"
       d="m 447.24503,511.60226 c 0,1.26921 -1.0289,2.2981 -2.2981,2.2981 -1.2692,0 -2.2981,-1.02889 -2.2981,-2.2981 0,-1.2692 1.0289,-2.29809 2.2981,-2.29809 1.2692,0 2.2981,1.02889 2.2981,2.29809 z"
       transform="translate(77.135379,-120.72125)" />
    <path
       transform="translate(46.553021,-148.12163)"
       sodipodi:type="arc"
       style="fill:#ffffff;fill-opacity:1;stroke:#fefeff;stroke-width:0.81875002;stroke-linecap:round;stroke-miterlimit:4;stroke-opacity:1;stroke-dasharray:none"
       id="path5741-6"
       sodipodi:cx="444.94693"
       sodipodi:cy="511.60226"
       sodipodi:rx="2.2980971"
       sodipodi:ry="2.2980971"
       d="m 447.24503,511.60226 c 0,1.26921 -1.0289,2.2981 -2.2981,2.2981 -1.2692,0 -2.2981,-1.02889 -2.2981,-2.2981 0,-1.2692 1.0289,-2.29809 2.2981,-2.29809 1.2692,0 2.2981,1.02889 2.2981,2.29809 z" />
    <path
       transform="translate(64.937798,-167.92062)"
       sodipodi:type="arc"
       style="fill:#ffffff;fill-opacity:1;stroke:#fefeff;stroke-width:0.81875002;stroke-linecap:round;stroke-miterlimit:4;stroke-opacity:1;stroke-dasharray:none"
       id="path5741-0"
       sodipodi:cx="444.94693"
       sodipodi:cy="511.60226"
       sodipodi:rx="2.2980971"
       sodipodi:ry="2.2980971"
       d="m 447.24503,511.60226 c 0,1.26921 -1.0289,2.2981 -2.2981,2.2981 -1.2692,0 -2.2981,-1.02889 -2.2981,-2.2981 0,-1.2692 1.0289,-2.29809 2.2981,-2.29809 1.2692,0 2.2981,1.02889 2.2981,2.29809 z" />
    <path
       transform="translate(87.211661,-178.52722)"
       sodipodi:type="arc"
       style="fill:#ffffff;fill-opacity:1;stroke:#fefeff;stroke-width:0.81875002;stroke-linecap:round;stroke-miterlimit:4;stroke-opacity:1;stroke-dasharray:none"
       id="path5741-66"
       sodipodi:cx="444.94693"
       sodipodi:cy="511.60226"
       sodipodi:rx="2.2980971"
       sodipodi:ry="2.2980971"
       d="m 447.24503,511.60226 c 0,1.26921 -1.0289,2.2981 -2.2981,2.2981 -1.2692,0 -2.2981,-1.02889 -2.2981,-2.2981 0,-1.2692 1.0289,-2.29809 2.2981,-2.29809 1.2692,0 2.2981,1.02889 2.2981,2.29809 z" />
    <path
       transform="translate(102.0609,-161.91021)"
       sodipodi:type="arc"
       style="fill:#ffffff;fill-opacity:1;stroke:#fefeff;stroke-width:0.81875002;stroke-linecap:round;stroke-miterlimit:4;stroke-opacity:1;stroke-dasharray:none"
       id="path5741-9"
       sodipodi:cx="444.94693"
       sodipodi:cy="511.60226"
       sodipodi:rx="2.2980971"
       sodipodi:ry="2.2980971"
       d="m 447.24503,511.60226 c 0,1.26921 -1.0289,2.2981 -2.2981,2.2981 -1.2692,0 -2.2981,-1.02889 -2.2981,-2.2981 0,-1.2692 1.0289,-2.29809 2.2981,-2.29809 1.2692,0 2.2981,1.02889 2.2981,2.29809 z" />
    <path
       transform="translate(77.665719,-135.04016)"
       sodipodi:type="arc"
       style="fill:#ffffff;fill-opacity:1;stroke:#fefeff;stroke-width:0.81875002;stroke-linecap:round;stroke-miterlimit:4;stroke-opacity:1;stroke-dasharray:none"
       id="path5741-8"
       sodipodi:cx="444.94693"
       sodipodi:cy="511.60226"
       sodipodi:rx="2.2980971"
       sodipodi:ry="2.2980971"
       d="m 447.24503,511.60226 c 0,1.26921 -1.0289,2.2981 -2.2981,2.2981 -1.2692,0 -2.2981,-1.02889 -2.2981,-2.2981 0,-1.2692 1.0289,-2.29809 2.2981,-2.29809 1.2692,0 2.2981,1.02889 2.2981,2.29809 z" />
    <path
       transform="translate(106.39193,-120.89802)"
       sodipodi:type="arc"
       style="fill:#ffffff;fill-opacity:1;stroke:#fefeff;stroke-width:0.81875002;stroke-linecap:round;stroke-miterlimit:4;stroke-opacity:1;stroke-dasharray:none"
       id="path5741-63"
       sodipodi:cx="444.94693"
       sodipodi:cy="511.60226"
       sodipodi:rx="2.2980971"
       sodipodi:ry="2.2980971"
       d="m 447.24503,511.60226 c 0,1.26921 -1.0289,2.2981 -2.2981,2.2981 -1.2692,0 -2.2981,-1.02889 -2.2981,-2.2981 0,-1.2692 1.0289,-2.29809 2.2981,-2.29809 1.2692,0 2.2981,1.02889 2.2981,2.29809 z" />
    <path
       transform="translate(92.048972,-119.02518)"
       sodipodi:type="arc"
       style="fill:#ffffff;fill-opacity:1;stroke:#fefeff;stroke-width:0.81875002;stroke-linecap:round;stroke-miterlimit:4;stroke-opacity:1;stroke-dasharray:none"
       id="path5741-08"
       sodipodi:cx="444.94693"
       sodipodi:cy="511.60226"
       sodipodi:rx="2.2980971"
       sodipodi:ry="2.2980971"
       d="m 447.24503,511.60226 c 0,1.26921 -1.0289,2.2981 -2.2981,2.2981 -1.2692,0 -2.2981,-1.02889 -2.2981,-2.2981 0,-1.2692 1.0289,-2.29809 2.2981,-2.29809 1.2692,0 2.2981,1.02889 2.2981,2.29809 z" />
    <path
       style="fill:none;stroke:#ffffff;stroke-width:1.79999995;stroke-linecap:butt;stroke-linejoin:miter;stroke-miterlimit:4;stroke-opacity:1;stroke-dasharray:none"
       d="m 508.11696,364.18774 -16.26345,-0.35355"
       id="path5833"
       inkscape:connector-curvature="0" />
    <path
       style="fill:none;stroke:#ffffff;stroke-width:1.79999995;stroke-linecap:butt;stroke-linejoin:miter;stroke-miterlimit:4;stroke-opacity:1;stroke-dasharray:none"
       d="m 507.76341,361.35932 2.12132,-18.03123"
       id="path5835"
       inkscape:connector-curvature="0" />
    <path
       style="fill:none;stroke:#ffffff;stroke-width:1.79999995;stroke-linecap:butt;stroke-linejoin:miter;stroke-miterlimit:4;stroke-opacity:1;stroke-dasharray:none"
       d="m 530.03727,346.51007 2.12132,-13.08147"
       id="path5837"
       inkscape:connector-curvature="0" />
    <path
       style="fill:none;stroke:#ffffff;stroke-width:1.79999995;stroke-linecap:butt;stroke-linejoin:miter;stroke-miterlimit:4;stroke-opacity:1;stroke-dasharray:none"
       d="m 530.03727,349.3385 17.67767,0.35355"
       id="path5839"
       inkscape:connector-curvature="0" />
    <path
       style="fill:none;stroke:#ffffff;stroke-width:1.79999995;stroke-linecap:butt;stroke-linejoin:miter;stroke-miterlimit:4;stroke-opacity:1;stroke-dasharray:none"
       d="m 522.9662,376.20856 12.19759,1.85615"
       id="path5841"
       inkscape:connector-curvature="0"
       sodipodi:nodetypes="cc" />
    <path
       style="fill:none;stroke:#ffffff;stroke-width:1.79999995;stroke-linecap:butt;stroke-linejoin:miter;stroke-miterlimit:4;stroke-opacity:1;stroke-dasharray:none"
       d="m 521.90554,391.0578 14.14214,-12.9047"
       id="path5843"
       inkscape:connector-curvature="0"
       sodipodi:nodetypes="cc" />
    <path
       style="fill:none;stroke:#ffffff;stroke-width:1.79999995;stroke-linecap:butt;stroke-linejoin:miter;stroke-miterlimit:4;stroke-opacity:1;stroke-dasharray:none"
       d="m 537.14235,392.62886 -1.18306,-15.80158"
       id="path5845"
       inkscape:connector-curvature="0"
       sodipodi:nodetypes="cc" />
    <path
       style="fill:none;stroke:#ffffff;stroke-width:1.79999995;stroke-linecap:butt;stroke-linejoin:miter;stroke-miterlimit:4;stroke-opacity:1;stroke-dasharray:none"
       d="M 551.60403,391.49974 535.69412,377.79955"
       id="path5847"
       inkscape:connector-curvature="0"
       sodipodi:nodetypes="cc" />
  </g>
</svg>
